<svg width="148" height="185" viewBox="0 0 148 185" fill="none" xmlns="http://www.w3.org/2000/svg">
<path d="M112.375 340.276L110.383 178.43L74.941 180.339L39.4988 178.43L37.5067 340.276C37.5067 340.276 33.9258 343.469 33.9258 345.06V349.048L34.3291 351.042C34.3291 351.042 43.0919 351.837 45.084 352.241C47.0761 352.645 52.258 351.042 52.258 351.042C52.258 351.042 54.6412 338.686 54.6412 337.487C54.6412 336.288 73.7555 202.752 73.7555 202.752L74.9532 202.58L76.1509 202.752C76.1509 202.752 95.2653 336.288 95.2653 337.487C95.2653 338.686 97.6485 351.042 97.6485 351.042C97.6485 351.042 102.83 352.633 104.81 352.241C106.802 351.837 115.565 351.042 115.565 351.042L115.968 349.048V345.06C115.968 343.469 112.388 340.276 112.388 340.276H112.375Z" fill="#263238" stroke="#263238" stroke-linecap="round" stroke-linejoin="round"/>
<path d="M125.879 86.9429C125.879 86.9429 137.196 92.1669 140.973 94.7851C144.749 97.4032 143.869 107.276 145.03 112.794C146.191 118.311 147.646 121.798 146.191 123.254C144.737 124.71 142.708 127.316 142.708 127.316C142.708 127.316 144.162 141.263 144.737 152.004C145.311 162.758 139.518 166.526 134.874 169.438C130.23 172.338 125.011 172.925 115.43 172.338C105.848 171.763 99.1753 167.114 98.3076 165.07C97.4398 163.04 89.3126 140.663 92.7957 127.879C96.2788 115.094 107.889 87.7871 113.401 84.8876C118.913 81.9881 125.879 86.9185 125.879 86.9185V86.9429Z" fill="#263238" stroke="#263238" stroke-linecap="round" stroke-linejoin="round"/>
<path d="M38.2387 164.801L36.21 179.323C36.21 179.323 47.527 186.297 55.9476 189.196C64.3682 192.096 74.2309 194.42 74.2309 194.42L76.553 189.478L78.2884 194.995C78.2884 194.995 83.507 194.42 91.9276 190.346C100.348 186.284 112.533 178.149 112.533 178.149L112.24 163.333L106.728 66.5851L84.668 56.9935L63.1949 58.7308L46.9404 67.7351L38.2387 164.765V164.801Z" fill="white" stroke="#263238" stroke-linecap="round" stroke-linejoin="round"/>
<path d="M98.1858 62.8904L84.6811 57.018L63.208 58.7553L54.9463 63.3309C56.4862 68.6772 62.2425 85.1322 75.1117 86.3556C87.0887 87.4811 95.1915 70.4634 98.198 62.8904H98.1858Z" fill="white" stroke="#263238" stroke-linecap="round" stroke-linejoin="round"/>
<path d="M62.6086 60.676C62.6086 60.676 68.4382 68.457 74.0601 70.6224C79.682 72.7879 84.6439 63.0495 86.1593 60.4558C87.6748 57.8622 88.1026 56.9935 88.1026 56.9935L63.2075 58.7553C63.2075 58.7553 60.4576 57.8499 62.6208 60.6638L62.6086 60.676Z" fill="#263238" stroke="#263238" stroke-linecap="round" stroke-linejoin="round"/>
<path d="M84.6679 57.0179C84.6679 57.0179 84.0935 181.941 84.9612 182.235C85.8289 182.528 112.826 171.481 114.268 170.319C115.723 169.156 117.458 167.126 117.458 167.126L118.032 120.354C118.032 120.354 127.027 126.166 129.643 126.741C132.258 127.316 140.386 125.872 140.96 122.679C141.534 119.486 131.378 93.3412 128.775 85.2055C126.16 77.0698 122.102 69.5213 120.941 66.9032C119.78 64.2851 108.17 62.8414 101.204 60.7983C94.2373 58.7674 84.6556 57.0179 84.6556 57.0179H84.6679Z" fill="#349AC0" stroke="#263238" stroke-linecap="round" stroke-linejoin="round"/>
<path d="M84.9606 82.5874L88.1504 77.9385C88.1504 77.9385 95.9844 84.6183 96.8521 82.2938C97.7199 79.9693 91.7558 61.2143 90.7536 57.6052C89.7637 53.9961 84.374 54.1185 84.0807 55.5743C83.7874 57.0302 84.9484 82.5874 84.9484 82.5874H84.9606Z" fill="#349AC0" stroke="#263238" stroke-linecap="round" stroke-linejoin="round"/>
<path d="M101.217 60.7985C101.217 60.7985 100.642 102.346 102.671 113.087C104.7 123.841 118.058 153.179 118.058 153.179V142.144C118.058 142.144 110.224 113.381 109.063 104.952C107.902 96.5223 108.195 62.8293 108.195 62.8293L101.229 60.7985H101.217Z" fill="#263238" stroke="#263238" stroke-linecap="round" stroke-linejoin="round"/>
<path d="M65.7625 60.9942C65.7625 60.9942 66.2269 178.149 66.2269 179.776C66.2269 181.403 63.6604 180.473 61.8028 179.544C59.9329 178.614 41.2829 172.313 36.1621 170.209C31.0413 168.105 30.3325 169.511 30.5647 167.175C30.7969 164.838 30.7969 157.143 30.7969 155.968C30.7969 154.794 32.4346 130.998 32.4346 130.998C32.4346 130.998 21.472 134.962 14.9457 132.393C8.41943 129.824 5.38851 126.79 6.08514 124.453C6.78176 122.116 19.1377 91.7754 20.0787 88.986C21.0075 86.1844 23.3418 70.3167 24.7473 68.922C26.1405 67.5273 57.623 59.5873 59.4807 58.1926C61.3506 56.7979 63.2082 57.0303 63.9049 57.0303C64.6015 57.0303 65.2981 56.5654 65.7747 60.9942H65.7625Z" fill="#349AC0" stroke="#263238" stroke-linecap="round" stroke-linejoin="round"/>
<path d="M38.7653 98.8957C39.0586 101.012 39.2175 103.043 38.9608 104.169C38.2642 107.203 32.4346 131.01 32.4346 131.01" stroke="#263238" stroke-linecap="round" stroke-linejoin="round"/>
<path d="M37.3223 91.3228C37.3223 91.3228 37.6281 92.6073 37.9829 94.4058" stroke="#263238" stroke-linecap="round" stroke-linejoin="round"/>
<path d="M62.4991 55.3909C62.4991 55.3909 60.397 57.9601 60.1648 60.0643C59.9326 62.1686 56.9017 73.3629 55.264 76.8619C53.6263 80.3609 52.9297 82.4651 52.9297 82.4651C52.9297 82.4651 55.0318 83.1625 57.1216 82.0002C59.2237 80.838 62.7191 78.9662 62.7191 78.9662L65.5178 82.0002L65.75 60.9941C65.75 60.9941 65.9822 53.5313 62.4869 55.3909H62.4991Z" fill="#349AC0" stroke="#263238" stroke-linecap="round" stroke-linejoin="round"/>
<path d="M55.9719 37.1864C55.9719 37.1864 52.2444 32.2805 52.0122 35.0821C51.78 37.8838 51.0834 41.3828 52.941 43.7195C54.8109 46.0562 56.2041 46.7536 56.2041 46.7536C56.2041 46.7536 59.2351 54.6935 61.3372 56.7856C63.4392 58.8776 64.6003 63.5511 70.4299 65.8878C76.2596 68.2246 79.2905 66.8176 82.3214 64.7256C83.7758 63.7101 89.0799 55.6233 89.7765 53.9962C90.4731 52.3568 90.7053 46.5333 90.7053 46.5333C90.7053 46.5333 94.6651 40.9301 94.8973 37.896C95.1295 34.8619 94.6651 32.9901 93.7362 32.9901H91.6341C91.6341 32.9901 94.4329 21.5511 94.2007 17.8197C93.9684 14.0883 87.21 6.6132 82.077 3.11422C76.944 -0.384759 66.2257 0.777485 60.6283 4.27646C55.0309 7.77544 49.2012 15.2505 50.6067 18.2846C52.0122 21.3187 55.9719 37.1864 55.9719 37.1864Z" fill="white" stroke="#263238" stroke-linecap="round" stroke-linejoin="round"/>
<path d="M71.3223 51.2067C71.3223 51.2067 72.19 52.6625 74.8054 53.2375C77.4208 53.8126 78.5818 51.2067 78.5818 51.2067" stroke="#263238" stroke-linecap="round" stroke-linejoin="round"/>
<path d="M70.1621 55.5623C70.1621 55.5623 71.8976 57.0181 75.0996 57.0181C78.3016 57.0181 80.037 55.2809 80.037 55.2809" stroke="#263238" stroke-linecap="round" stroke-linejoin="round"/>
<path d="M55.9727 37.1865C55.9727 37.1865 55.7892 36.9418 55.5078 36.5992L55.9727 37.1865Z" stroke="#263238" stroke-linecap="round" stroke-linejoin="round"/>
<path d="M82.077 3.11422C76.944 -0.384759 66.2257 0.777485 60.6283 4.27646C55.0309 7.77544 49.2012 15.2505 50.6067 18.2846C52.0122 21.3187 55.9719 37.1864 55.9719 37.1864C55.9719 37.1864 57.8418 37.6513 58.5384 36.0242C59.2351 34.3848 58.074 32.0603 59.2351 29.956C60.1761 28.2555 62.9382 28.3778 64.5881 27.9986C63.3659 28.7938 61.8138 30.2619 63.6715 31.1183C66.7024 32.513 68.5723 30.4209 74.8663 27.1544C81.1604 23.8879 81.857 20.6213 81.857 20.6213C81.857 20.6213 84.8879 23.1905 84.8879 25.9921C84.8879 28.7938 84.6557 32.7577 86.2811 33.2226C87.9188 33.6875 89.0799 33.9199 89.0799 33.9199C89.0799 33.9199 88.3832 36.954 90.0087 37.1864C91.2064 37.3577 91.6464 34.5071 91.8052 32.9901H91.6464C91.6464 32.9901 94.4451 21.5511 94.2129 17.8197C93.9807 14.0883 87.2222 6.6132 82.0892 3.11422H82.077Z" fill="#263238" stroke="#263238" stroke-linecap="round" stroke-linejoin="round"/>
<path d="M78.582 42.0923C78.582 42.0923 81.613 44.6615 86.2693 41.6274" stroke="#263238" stroke-linecap="round" stroke-linejoin="round"/>
<path d="M61.8018 42.0923C61.8018 42.0923 64.8327 44.6615 69.4891 41.6274" stroke="#263238" stroke-linecap="round" stroke-linejoin="round"/>
<path d="M61.0928 38.5812C61.0928 38.5812 64.8203 36.9418 68.5479 37.8838" stroke="#263238" stroke-linecap="round" stroke-linejoin="round"/>
<path d="M78.8154 37.8837C78.8154 37.8837 82.0786 36.7214 85.5739 38.1161" stroke="#263238" stroke-linecap="round" stroke-linejoin="round"/>
<path d="M12.1465 123.535C12.1465 123.535 26.6045 122.606 28.6944 122.606C30.7842 122.606 32.4219 127.034 32.8863 129.604C33.3507 132.173 33.583 138.008 33.583 138.008C33.583 138.008 26.8245 147.576 22.1559 149.215C17.4873 150.854 7.2335 147.82 4.66699 145.716C2.10049 143.612 -0.0016045 134.045 1.40386 130.778C2.79711 127.511 5.82803 125.407 7.00129 124.245" fill="#349AC0"/>
<path d="M12.1465 123.535C12.1465 123.535 26.6045 122.606 28.6944 122.606C30.7842 122.606 32.4219 127.034 32.8863 129.604C33.3507 132.173 33.583 138.008 33.583 138.008C33.583 138.008 26.8245 147.576 22.1559 149.215C17.4873 150.854 7.2335 147.82 4.66699 145.716C2.10049 143.612 -0.00160452 134.045 1.40386 130.778C2.79711 127.511 5.82803 125.407 7.00129 124.245" stroke="#263238" stroke-linecap="round" stroke-linejoin="round"/>
<path d="M48.4561 94.9195L55.63 124.624L69.1714 121.627L63.3907 92.7296L48.4561 94.9195Z" fill="#263238" stroke="#263238" stroke-linecap="round" stroke-linejoin="round"/>
<path d="M40.8171 122.373L44.7768 118.409C44.7768 118.409 46.4145 112.109 47.3433 110.237C48.2721 108.365 50.8387 105.098 50.8387 105.098L51.7675 108.132C51.7675 108.132 60.628 104.169 62.0213 104.169C63.4145 104.169 63.8912 105.563 63.8912 106.273C63.8912 106.982 54.1018 111.644 54.1018 111.644L52.9407 113.283C52.9407 113.283 61.3369 110.016 62.7301 109.087C64.1234 108.157 65.761 107.924 65.761 107.924C65.761 107.924 66.9221 109.796 66.4577 110.726C65.9933 111.656 65.5288 112.83 65.5288 112.83C65.5288 112.83 65.6999 113.283 65.3333 114.653C64.7344 116.904 62.5468 118.409 62.5468 118.409C62.5468 118.409 59.467 122.165 57.8415 123.804C56.2039 125.444 50.3865 126.838 50.3865 126.838L39.4238 133.836C39.4238 133.836 37.7861 132.442 37.7861 128.466C37.7861 124.49 40.8171 122.397 40.8171 122.397V122.373Z" fill="white" stroke="#263238" stroke-linecap="round" stroke-linejoin="round"/>
<path d="M65.7599 111.631C65.7599 111.631 56.4349 116.305 54.1006 117.932" stroke="#263238" stroke-linecap="round" stroke-linejoin="round"/>
<path d="M54.4561 121.933L62.5467 118.372" stroke="#263238" stroke-linecap="round" stroke-linejoin="round"/>
<path d="M42.6764 120.036C42.6764 120.036 39.6455 123.768 39.8777 127.267C40.1099 130.766 42.6764 136.601 42.6764 136.601C42.6764 136.601 38.4845 139.403 36.8468 141.03C35.2091 142.657 31.4816 143.599 30.0883 140.565C28.6951 137.531 26.3608 130.766 27.2896 126.802C28.2184 122.838 30.0883 121.663 31.0172 121.431C31.946 121.199 41.0388 120.269 42.6764 120.036Z" fill="#349AC0" stroke="#263238" stroke-linecap="round" stroke-linejoin="round"/>
<path d="M117.471 106.114C117.471 106.114 113.413 93.9163 111.959 91.5918C110.505 89.2673 108.183 87.8114 107.315 87.8114C106.447 87.8114 101.216 86.3555 99.7742 86.3555C98.332 86.3555 95.7167 87.2242 96.2911 89.8423L96.8655 92.4604C96.8655 92.4604 96.2911 97.1094 96.2911 98.2716C96.2911 99.4339 98.6131 101.465 98.6131 101.465C98.6131 101.465 98.9065 104.952 99.4809 106.114C100.055 107.276 109.344 109.894 109.344 109.894L110.211 111.056L111.947 111.925L117.459 106.114H117.471Z" fill="white" stroke="#263238" stroke-linecap="round" stroke-linejoin="round"/>
<path d="M122.397 111.35C122.397 111.35 130.23 115.705 132.553 116.574C134.875 117.443 137.771 117.736 140.973 122.679C144.175 127.622 143.002 135.757 140.973 140.113C138.944 144.468 132.271 145.63 127.908 145.63C123.545 145.63 119.207 136.626 116.885 134.008C114.563 131.39 110.786 123.841 110.786 123.841L122.397 111.35Z" fill="#349AC0" stroke="#263238" stroke-linecap="round" stroke-linejoin="round"/>
<path d="M118.631 104.376C118.631 104.376 112.826 107.57 110.211 111.056C107.596 114.543 105.273 117.736 105.273 119.486C105.273 121.235 110.211 127.915 110.211 127.915L125.304 112.231C125.304 112.231 121.821 106.42 118.631 104.389V104.376Z" fill="#349AC0" stroke="#263238" stroke-linecap="round" stroke-linejoin="round"/>
</svg>
